<svg width="43" height="41" viewBox="0 0 43 41" fill="none" xmlns="http://www.w3.org/2000/svg">
<path d="M4 0H39V41H4V0Z" fill="white"/>
<path d="M4 0H39V41H4V0Z" fill="white"/>
<path d="M4 0H39V41H4V0Z" fill="white"/>
<path d="M4 0H39V41H4V0Z" fill="white"/>
<path d="M0 4H43V37H0V4Z" fill="white"/>
<path d="M0 4H43V37H0V4Z" fill="white"/>
<path d="M0 4H43V37H0V4Z" fill="white"/>
<path d="M0 4H43V37H0V4Z" fill="white"/>
<path d="M13.3538 8.28572H15.9252V10.8571H13.3538V8.28572ZM10.7824 8.28572H13.3538V10.8571H10.7824V8.28572ZM10.7824 10.8571H13.3538V13.4286H10.7824V10.8571ZM13.3538 10.8571H15.9252V13.4286H13.3538V10.8571ZM15.9252 10.8571H18.4967V13.4286H15.9252V10.8571ZM15.9252 8.28572H18.4967V10.8571H15.9252V8.28572ZM18.4967 8.28572H21.0681V10.8571H18.4967V8.28572ZM21.0681 8.28572H23.6395V10.8571H21.0681V8.28572ZM21.0681 10.8571H23.6395V13.4286H21.0681V10.8571ZM18.4967 10.8571H21.0681V13.4286H18.4967V10.8571ZM18.4967 13.4286H21.0681V16H18.4967V13.4286ZM21.0681 13.4286H23.6395V16H21.0681V13.4286ZM23.6395 10.8571H26.2109V13.4286H23.6395V10.8571ZM23.6395 13.4286H26.2109V16H23.6395V13.4286ZM23.6395 16H26.2109V18.5714H23.6395V16ZM23.6395 18.5714H26.2109V21.1429H23.6395V18.5714ZM23.6395 21.1429H26.2109V23.7143H23.6395V21.1429ZM23.6395 23.7143H26.2109V26.2857H23.6395V23.7143ZM23.6395 26.2857H26.2109V28.8571H23.6395V26.2857ZM23.6395 28.8571H26.2109V31.4286H23.6395V28.8571ZM21.0681 28.8571H23.6395V31.4286H21.0681V28.8571ZM21.0681 26.2857H23.6395V28.8571H21.0681V26.2857ZM21.0681 23.7143H23.6395V26.2857H21.0681V23.7143ZM21.0681 21.1429H23.6395V23.7143H21.0681V21.1429ZM21.0681 18.5714H23.6395V21.1429H21.0681V18.5714ZM21.0681 16H23.6395V18.5714H21.0681V16ZM18.4967 26.2857H21.0681V28.8571H18.4967V26.2857ZM18.4967 28.8571H21.0681V31.4286H18.4967V28.8571ZM21.0681 31.4286H23.6395V34H21.0681V31.4286ZM18.4967 31.4286H21.0681V34H18.4967V31.4286ZM15.9252 31.4286H18.4967V34H15.9252V31.4286ZM15.9252 28.8571H18.4967V31.4286H15.9252V28.8571ZM13.3538 31.4286H15.9252V34H13.3538V31.4286ZM10.7824 31.4286H13.3538V34H10.7824V31.4286ZM10.7824 28.8571H13.3538V31.4286H10.7824V28.8571ZM13.3538 28.8571H15.9252V31.4286H13.3538V28.8571ZM13.3538 26.2857H15.9252V28.8571H13.3538V26.2857ZM10.7824 26.2857H13.3538V28.8571H10.7824V26.2857ZM8.21094 28.8571H10.7824V31.4286H8.21094V28.8571ZM8.21094 26.2857H10.7824V28.8571H8.21094V26.2857ZM8.21094 23.7143H10.7824V26.2857H8.21094V23.7143ZM8.21094 21.1429H10.7824V23.7143H8.21094V21.1429ZM8.21094 18.5714H10.7824V21.1429H8.21094V18.5714ZM8.21094 16H10.7824V18.5714H8.21094V16ZM8.21094 13.4286H10.7824V16H8.21094V13.4286ZM10.7824 13.4286H13.3538V16H10.7824V13.4286ZM8.21094 10.8571H10.7824V13.4286H8.21094V10.8571ZM13.3538 13.4286H15.9252V16H13.3538V13.4286ZM10.7824 16H13.3538V18.5714H10.7824V16ZM10.7824 18.5714H13.3538V21.1429H10.7824V18.5714ZM10.7824 21.1429H13.3538V23.7143H10.7824V21.1429ZM10.7824 23.7143H13.3538V26.2857H10.7824V23.7143Z" fill="black"/>
<path d="M28.8555 7.42857H30.1412V8.71429H28.8555V7.42857ZM28.8555 8.71429H30.1412V10H28.8555V8.71429ZM30.1412 8.71429H31.4269V10H30.1412V8.71429ZM30.1412 7.42857H31.4269V8.71429H30.1412V7.42857ZM30.1412 6.14286H31.4269V7.42857H30.1412V6.14286ZM31.4269 6.14286H32.7126V7.42857H31.4269V6.14286ZM32.7126 6.14286H33.9983V7.42857H32.7126V6.14286ZM33.9983 6.14286H35.284V7.42857H33.9983V6.14286ZM35.284 6.14286H36.5698V7.42857H35.284V6.14286ZM35.284 7.42857H36.5698V8.71429H35.284V7.42857ZM33.9983 7.42857H35.284V8.71429H33.9983V7.42857ZM32.7126 7.42857H33.9983V8.71429H32.7126V7.42857ZM31.4269 7.42857H32.7126V8.71429H31.4269V7.42857ZM35.284 8.71429H36.5698V10H35.284V8.71429ZM36.5698 8.71429H37.8555V10H36.5698V8.71429ZM36.5698 7.42857H37.8555V8.71429H36.5698V7.42857ZM36.5698 10H37.8555V11.2857H36.5698V10ZM35.284 10H36.5698V11.2857H35.284V10ZM33.9983 10H35.284V11.2857H33.9983V10ZM33.9983 11.2857H35.284V12.5714H33.9983V11.2857ZM35.284 11.2857H36.5698V12.5714H35.284V11.2857ZM32.7126 11.2857H33.9983V12.5714H32.7126V11.2857ZM32.7126 12.5714H33.9983V13.8571H32.7126V12.5714ZM33.9983 12.5714H35.284V13.8571H33.9983V12.5714ZM31.4269 12.5714H32.7126V13.8571H31.4269V12.5714ZM31.4269 13.8571H32.7126V15.1429H31.4269V13.8571ZM32.7126 13.8571H33.9983V15.1429H32.7126V13.8571ZM30.1412 13.8571H31.4269V15.1429H30.1412V13.8571ZM30.1412 15.1429H31.4269V16.4286H30.1412V15.1429ZM31.4269 15.1429H32.7126V16.4286H31.4269V15.1429ZM28.8555 15.1429H30.1412V16.4286H28.8555V15.1429ZM28.8555 16.4286H30.1412V17.7143H28.8555V16.4286ZM28.8555 17.7143H30.1412V19H28.8555V17.7143ZM30.1412 17.7143H31.4269V19H30.1412V17.7143ZM30.1412 16.4286H31.4269V17.7143H30.1412V16.4286ZM31.4269 16.4286H32.7126V17.7143H31.4269V16.4286ZM32.7126 16.4286H33.9983V17.7143H32.7126V16.4286ZM32.7126 17.7143H33.9983V19H32.7126V17.7143ZM33.9983 17.7143H35.284V19H33.9983V17.7143ZM35.284 17.7143H36.5698V19H35.284V17.7143ZM36.5698 17.7143H37.8555V19H36.5698V17.7143ZM36.5698 16.4286H37.8555V17.7143H36.5698V16.4286ZM35.284 16.4286H36.5698V17.7143H35.284V16.4286ZM33.9983 16.4286H35.284V17.7143H33.9983V16.4286ZM31.4269 17.7143H32.7126V19H31.4269V17.7143Z" fill="black"/>
</svg>
